<mxfile host="app.diagrams.net" modified="2021-09-26T11:39:48.068Z" agent="5.0 (Macintosh; Intel Mac OS X 10_15_7) AppleWebKit/537.36 (KHTML, like Gecko) Chrome/94.0.4606.61 Safari/537.36" etag="lRq2khp9DUUGAV5o-nEC" version="15.2.9" type="github">
  <diagram id="pqnEu_LPcBLWFKMmrc0G" name="第 1 页">
    <mxGraphModel dx="1426" dy="1050" grid="1" gridSize="10" guides="1" tooltips="1" connect="1" arrows="1" fold="1" page="1" pageScale="1" pageWidth="827" pageHeight="1169" math="0" shadow="0">
      <root>
        <mxCell id="0" />
        <mxCell id="1" parent="0" />
        <mxCell id="B1jZlo_vLBBG4-vqa8uE-35" value="" style="group" vertex="1" connectable="0" parent="1">
          <mxGeometry x="40" y="410" width="746.25" height="250" as="geometry" />
        </mxCell>
        <mxCell id="B1jZlo_vLBBG4-vqa8uE-2" value="" style="rounded=0;whiteSpace=wrap;html=1;fillColor=#cdeb8b;strokeColor=#36393d;dashed=1;strokeWidth=2;" vertex="1" parent="B1jZlo_vLBBG4-vqa8uE-35">
          <mxGeometry width="190" height="250" as="geometry" />
        </mxCell>
        <mxCell id="B1jZlo_vLBBG4-vqa8uE-3" value="&lt;font style=&quot;font-size: 22px&quot;&gt;array&lt;/font&gt;" style="rounded=0;whiteSpace=wrap;html=1;gradientColor=#7ea6e0;fillColor=#dae8fc;strokeColor=#6c8ebf;dashed=1;" vertex="1" parent="B1jZlo_vLBBG4-vqa8uE-35">
          <mxGeometry x="10" y="30" width="170" height="50" as="geometry" />
        </mxCell>
        <mxCell id="B1jZlo_vLBBG4-vqa8uE-4" value="&lt;span style=&quot;font-size: 22px&quot;&gt;len&lt;/span&gt;" style="rounded=0;whiteSpace=wrap;html=1;gradientColor=#ea6b66;fillColor=#f8cecc;strokeColor=#b85450;dashed=1;" vertex="1" parent="B1jZlo_vLBBG4-vqa8uE-35">
          <mxGeometry x="10" y="100" width="170" height="50" as="geometry" />
        </mxCell>
        <mxCell id="B1jZlo_vLBBG4-vqa8uE-5" value="&lt;span style=&quot;font-size: 22px&quot;&gt;cap&lt;/span&gt;" style="rounded=0;whiteSpace=wrap;html=1;gradientColor=#ffd966;fillColor=#fff2cc;strokeColor=#d6b656;dashed=1;" vertex="1" parent="B1jZlo_vLBBG4-vqa8uE-35">
          <mxGeometry x="10" y="170" width="170" height="50" as="geometry" />
        </mxCell>
        <mxCell id="B1jZlo_vLBBG4-vqa8uE-34" style="edgeStyle=orthogonalEdgeStyle;rounded=1;orthogonalLoop=1;jettySize=auto;html=1;fontSize=27;strokeWidth=3;" edge="1" parent="B1jZlo_vLBBG4-vqa8uE-35" source="B1jZlo_vLBBG4-vqa8uE-22">
          <mxGeometry relative="1" as="geometry">
            <mxPoint x="200" y="55" as="targetPoint" />
          </mxGeometry>
        </mxCell>
        <mxCell id="B1jZlo_vLBBG4-vqa8uE-22" value="10" style="rounded=0;whiteSpace=wrap;html=1;dashed=1;strokeWidth=2;fillColor=#fff2cc;strokeColor=#d6b656;fontSize=27;" vertex="1" parent="B1jZlo_vLBBG4-vqa8uE-35">
          <mxGeometry x="340" y="30" width="80" height="50" as="geometry" />
        </mxCell>
        <mxCell id="B1jZlo_vLBBG4-vqa8uE-23" value="9" style="rounded=0;whiteSpace=wrap;html=1;dashed=1;strokeWidth=2;fillColor=#fff2cc;strokeColor=#d6b656;fontSize=27;" vertex="1" parent="B1jZlo_vLBBG4-vqa8uE-35">
          <mxGeometry x="420" y="30" width="80" height="50" as="geometry" />
        </mxCell>
        <mxCell id="B1jZlo_vLBBG4-vqa8uE-24" value="8" style="rounded=0;whiteSpace=wrap;html=1;dashed=1;strokeWidth=2;fillColor=#fff2cc;strokeColor=#d6b656;fontSize=27;" vertex="1" parent="B1jZlo_vLBBG4-vqa8uE-35">
          <mxGeometry x="500" y="30" width="80" height="50" as="geometry" />
        </mxCell>
        <mxCell id="B1jZlo_vLBBG4-vqa8uE-25" value="21" style="rounded=0;whiteSpace=wrap;html=1;dashed=1;strokeWidth=2;fillColor=#fff2cc;strokeColor=#d6b656;fontSize=27;" vertex="1" parent="B1jZlo_vLBBG4-vqa8uE-35">
          <mxGeometry x="580" y="30" width="80" height="50" as="geometry" />
        </mxCell>
        <mxCell id="B1jZlo_vLBBG4-vqa8uE-26" value="0" style="rounded=0;whiteSpace=wrap;html=1;dashed=1;strokeWidth=2;fillColor=#fff2cc;strokeColor=#d6b656;fontSize=27;" vertex="1" parent="B1jZlo_vLBBG4-vqa8uE-35">
          <mxGeometry x="660" y="30" width="80" height="50" as="geometry" />
        </mxCell>
        <mxCell id="B1jZlo_vLBBG4-vqa8uE-29" value="" style="shape=curlyBracket;whiteSpace=wrap;html=1;rounded=1;flipH=1;fontSize=27;strokeWidth=2;rotation=90;" vertex="1" parent="B1jZlo_vLBBG4-vqa8uE-35">
          <mxGeometry x="478.75" y="-51.25" width="32.5" height="310" as="geometry" />
        </mxCell>
        <mxCell id="B1jZlo_vLBBG4-vqa8uE-31" value="len=4" style="text;html=1;align=center;verticalAlign=middle;resizable=0;points=[];autosize=1;strokeColor=none;fillColor=none;fontSize=27;" vertex="1" parent="B1jZlo_vLBBG4-vqa8uE-35">
          <mxGeometry x="455" y="110" width="80" height="40" as="geometry" />
        </mxCell>
        <mxCell id="B1jZlo_vLBBG4-vqa8uE-32" value="" style="shape=curlyBracket;whiteSpace=wrap;html=1;rounded=1;flipH=1;fontSize=27;strokeWidth=2;rotation=90;" vertex="1" parent="B1jZlo_vLBBG4-vqa8uE-35">
          <mxGeometry x="526.25" y="-32" width="27.5" height="412.5" as="geometry" />
        </mxCell>
        <mxCell id="B1jZlo_vLBBG4-vqa8uE-33" value="cap=5" style="text;html=1;align=center;verticalAlign=middle;resizable=0;points=[];autosize=1;strokeColor=none;fillColor=none;fontSize=27;" vertex="1" parent="B1jZlo_vLBBG4-vqa8uE-35">
          <mxGeometry x="495" y="190" width="90" height="40" as="geometry" />
        </mxCell>
      </root>
    </mxGraphModel>
  </diagram>
</mxfile>
